#N canvas 436 118 1129 525 12;
#X declare -path SQLdb;
#X obj 284 217 t b;
#X obj 220 135 bng 15 250 50 0 empty empty empty 17 7 0 10 #fcfcfc #000000 #000000;
#X obj 238 294 make-list;
#X obj 220 154 t b b b;
#X obj 238 243 SQLquery \$0-db;
#X text 310 130 1 Query querycondition for bassdrums;
#X obj 638 44 declare -path SQLdb;
#X obj 220 176 SQLstatement-send;
#X obj 238 318 list split 3;
#X obj 352 293 list;
#X obj 238 342 print RESULT;
#X obj 88 96 SQLdb \$0-db;
#X obj 88 121 SQLdb-helper;
#X msg 88 70 open \$1;
#X msg 162 70 close;
#X obj 88 31 bng 15 250 50 0 empty empty empty 17 7 0 10 #fcfcfc #000000 #000000;
#X obj 88 49 openpanel;
#X msg 88 145 close;
#X msg 400 196 SELECT DISTINCT slice.onset_bt_start \, slice.onset_bt_end \, source.uri FROM spotpypie_querycondition AS qc JOIN spotpypie_song AS song ON qc.song_id = song.id JOIN spotpypie_source AS source ON song.source_id = source.id JOIN spotpypie_slice AS slice ON slice.song_id = song.id JOIN spotpypie_pc_rolloff AS rolloff ON rolloff.slice_id = slice.id JOIN spotpypie_pc_var_centroid AS var_centroid ON var_centroid.slice_id = slice.id JOIN spotpypie_pc_var_bandwidth AS var_bandwidth ON var_bandwidth.slice_id = slice.id WHERE qc.name = 'BdQuery' AND rolloff < 40 AND var_centroid > 100000 AND var_bandwidth < 10000, f 87;
#X connect 0 0 4 0;
#X connect 1 0 3 0;
#X connect 2 0 8 0;
#X connect 2 1 0 0;
#X connect 3 0 7 0;
#X connect 3 1 2 1;
#X connect 4 0 2 0;
#X connect 4 2 2 2;
#X connect 7 0 4 0;
#X connect 7 1 18 0;
#X connect 8 0 10 0;
#X connect 8 1 9 0;
#X connect 9 0 8 0;
#X connect 11 0 12 0;
#X connect 12 0 17 0;
#X connect 13 0 11 0;
#X connect 14 0 11 0;
#X connect 15 0 16 0;
#X connect 16 0 13 0;
#X connect 18 0 4 1;
