#N canvas 0 22 270 261 10;
#X obj 111 71 list-compare;
#X obj 111 46 t a a;
#X obj 111 93 != 1;
#X obj 55 113 spigot;
#X obj 111 21 inlet;
#X obj 55 135 outlet;
#X connect 0 0 2 0;
#X connect 1 0 0 1;
#X connect 1 0 3 0;
#X connect 1 1 0 0;
#X connect 2 0 3 1;
#X connect 3 0 5 0;
#X connect 4 0 1 0;
