#N canvas 706 44 955 602 12;
#X obj 124 49 openpanel;
#X obj 124 26 bng 15 250 50 0 empty empty empty 17 7 0 10 #fcfcfc #000000
#000000;
#N canvas 304 109 450 300 loadfast 0;
#X obj 37 37 inlet;
#X obj 37 61 t s b;
#X obj 218 75 switch~;
#X obj 36 206 readsf~;
#X msg 221 112 0;
#X msg 37 85 open \$1 \, 1;
#X obj 80 256 tabwrite~ \$1;
#X obj 182 209 outlet;
#X msg 218 43 set 64 8 64 \, 1;
#X connect 0 0 1 0;
#X connect 1 0 5 0;
#X connect 1 1 6 0;
#X connect 1 1 8 0;
#X connect 3 0 6 0;
#X connect 3 1 4 0;
#X connect 3 1 7 0;
#X connect 4 0 2 0;
#X connect 5 0 3 0;
#X connect 8 0 2 0;
#X restore 326 198 pd loadfast;
#X obj 214 48 inlet;
#X obj 326 222 outlet;
#X obj 326 168 symbol;
#X obj 124 190 t b f;
#X obj 124 73 t b s s;
#X msg 124 111 read \$1;
#X obj 124 135 soundfiler;
#X obj 157 258 v loadArraySize;
#X obj 242 204 loadbang;
#X msg 242 228 416690;
#X msg 296 87 \$1;
#X obj 296 111 s loadArraySR;
#X msg 354 72 44100;
#X connect 0 0 7 0;
#X connect 1 0 0 0;
#X connect 2 0 4 0;
#X connect 3 0 7 0;
#X connect 5 0 2 0;
#X connect 6 0 5 0;
#X connect 6 1 10 0;
#X connect 7 1 8 0;
#X connect 7 2 5 1;
#X connect 8 0 9 0;
#X connect 9 0 6 0;
#X connect 9 1 13 0;
#X connect 11 0 12 0;
#X connect 11 0 15 0;
#X connect 12 0 10 0;
#X connect 13 0 14 0;
#X connect 15 0 14 0;
