#N canvas 244 110 1548 982 12;
#X declare -path ofelia/abs;
#X obj 1321 44 declare -path ofelia/abs;
#X obj 115 371 ofelia f -k \$0-waveForm;
#A __set function M.new(c \, p \, s \, pt) \; local wf = ofTable()
\; wf.screen = ofVec2f(ofGetWindowWidth() \, ofGetWindowHeight()) \;
wf.translation = ofVec2f(0 \, 0) \; wf.rotation = 0 \; wf.pos = p \;
wf.size = s \; wf.color = c \; wf.wave = {} \; wf.fbo = ofFbo() \;
wf.value = 1 \; wf.running = 0 \; wf.parent = pt \; wf.window = (wf.parent
== nil) and ofVec2f(wf.screen.x \, wf.screen.x) or ofVec2f((wf.parent.autoPanded)
and wf.parent.actXs or ((wf.parent.Xpanded) and wf.parent.actXs or
((wf.parent.shrinked) and wf.parent.shrS.x or wf.parent.xmin)) \, (wf.parent.autoPanded)
and wf.parent.actYs or ((wf.parent.Ypanded) and wf.parent.actYs or
((wf.parent.shrinked) and wf.parent.shrS.y or wf.parent.ymin))) \;
wf.fbo:allocate(wf.size.x*wf.window.x \, wf.size.y*wf.window.y \, GL_RGBA)
\; function wf.paint() \; if (wf.parent == nil or (wf.parent.Xpanded
and wf.parent.Ypanded) or wf.parent.overPanded) then \; ofPushMatrix()
\; ofTranslate(wf.translation.x \, wf.translation.y) \; ofRotateZDeg(wf.rotation)
\; local alpha = ((wf.value == 1) and ((wf.running == 1) and 128 or
255) or ((wf.running == 1) and 128 or 63)) \; ofSetColor(c.x \, c.y
\, c.z \, alpha) \; local Xposition = (wf.parent == nil) and wf.pos.x*wf.window.x
or (wf.pos.x*wf.window.x + wf.parent.actXp + ((wf.parent.autoPanded)
and 0 or wf.parent.height*7)) \; local Yposition = (wf.parent == nil)
and wf.pos.y*wf.window.y or (wf.pos.y*wf.window.y + wf.parent.actYp
+ ((wf.parent.autoPanded) and 0 or wf.parent.height*7)) \; if (wf.parent
== nil or (not wf.parent.shrinked)) then \; wf.fbo:draw(Xposition \,
Yposition) \; else \; wf.fbo:draw(wf.parent.shrP.x+wf.parent.height*7+wf.pos.x*wf.window.x
\, wf.parent.shrP.y+wf.parent.height*7+ wf.pos.y*wf.window.y) \; end
\; ofPopMatrix() \; end \; end \; function wf.setWave(w) \; wf.wave[w.x]
= ofVec2f(w.y \, w.z) \; end \; function wf.clearWave(w) \; wf.wave
= {} \; end \; return wf \; end \; return M \;;
#X obj 77 660 ofelia f \; \$1.paint() \;;
#X obj 157 298 inlet;
#N canvas 345 25 1447 1001 drawWave 0;
#X obj 583 342 inlet;
#X msg 853 413 0;
#X obj 853 437 t f b;
#X obj 853 475 pack;
#X obj 854 584 ofelia f \; local sampleStart \, sampleEnd \, sampleLength
= a[1] \, a[2] \, a[2]-a[1] \; local div = sampleLength/(\$1.size.x*\$1.window.x)
\; return ofTable(\$1.size.x*\$1.window.x \, div \, sampleStart) \;
;
#X obj 737 33 inlet;
#X obj 737 57 route symbol list;
#X obj 849 103 list length;
#X obj 849 127 == 3;
#X obj 795 146 spigot;
#X obj 795 170 unpack f f s;
#X obj 875 195 t f f b;
#X obj 875 219 spigot;
#X obj 897 243 <= 1;
#X obj 875 270 *;
#X obj 795 219 spigot;
#X obj 819 242 <= 1;
#X obj 795 270 *;
#X obj 980 103 list length;
#X obj 926 146 spigot;
#X obj 980 127 == 2;
#X obj 926 170 unpack f f;
#X obj 795 195 t f f b;
#X obj 1010 382 t b b;
#X obj 938 232 array size \$9;
#X obj 1059 291 inlet;
#X obj 795 84 t a a b;
#X obj 738 437 t b s b;
#X obj 853 558 spigot;
#X obj 853 502 t a a;
#X obj 959 505 ofelia f -c12 \; return (a[2] > \$1.window.x) and ofTable(1
\, 0) or ofTable(0 \, 1) \;;
#X obj 78 548 spigot;
#N canvas 262 80 450 300 wave<windowX 0;
#X obj 37 37 inlet;
#X obj 134 90 array get \$1-array;
#X msg 37 61 list \$2;
#X obj 97 119 list append;
#X obj 37 85 t b a b;
#X obj 37 109 outlet;
#X obj 97 161 ofelia f \; local div = \$1.window.x / a[1] \; for i
= 0 \, \$1.window.x-1 do \; \$1.setWave(ofVec3f(i \, a[math.floor(i/div)+1]
\, a[math.floor(i/div)+1])) \; end \;;
#X connect 0 0 2 0;
#X connect 1 0 3 1;
#X connect 2 0 4 0;
#X connect 3 0 6 0;
#X connect 4 0 5 0;
#X connect 4 1 3 0;
#X connect 4 2 1 0;
#X restore 78 572 pd wave<windowX;
#X msg 1059 315 1;
#X obj 1144 295 ofUpdate;
#X obj 1144 319 spigot;
#X msg 1144 343 0;
#X obj 78 751 pack s f;
#X msg 110 620 0;
#X obj 78 724 symbol \$1;
#X obj 77 775 ofelia f \; \$1.fbo:beginFbo() \; if #\$1.wave > 0 then
\; ofSetColor(\$1.color.x \, \$1.color.y \, \$1.color.z \, 255) \;
for i = a[2] \, #\$1.wave do \; if (\$1.wave[i].x == \$1.wave[i].y)
then \; ofDrawLine(i \, (\$1.size.y*0.5+\$1.size.y*0.5*\$1.wave[i].x)*\$1.window.y
\, i+1 \, (\$1.size.y*0.5+\$1.size.y*0.5*\$1.wave[i].y)*\$1.window.y)
\; else \; ofDrawLine(i \, (\$1.size.y*0.5+\$1.size.y*0.5*\$1.wave[i].x)*\$1.window.y
\, i \, (\$1.size.y*0.5+\$1.size.y*0.5*\$1.wave[i].y)*\$1.window.y)
\; end \; end \; end \; \$1.fbo:endFbo() \; return 0 \;;
#X f 106;
#X obj 1140 713 ofelia f \; \$1.clearWave() \; \$1.fbo:allocate(\$1.size.x*\$1.window.x
\, \$1.size.y*\$1.window.y \, GL_RGBA) \; \$1.fbo:beginFbo() \; ofClear(0
\, 0) \; ofSetColor(\$1.color.x \, \$1.color.y \, \$1.color.z \, 255)
\; ofNoFill() \; ofDrawRectRounded(1 \, 1 \, \$1.size.x*\$1.window.x-2
\, \$1.size.y*\$1.window.y-2 \, 4) \; ofSetColor(\$1.color.x \, \$1.color.y
\, \$1.color.z \, 32) \; ofFill() \; ofDrawRectRounded(1 \, 1 \, \$1.size.x*\$1.window.x-2
\, \$1.size.y*\$1.window.y-2 \, 4) \; \$1.fbo:endFbo() \; return 1
\;;
#X obj 931 456 v \$1ArraySize;
#X obj 882 964 ofelia f \; \$1.setWave(ofVec3f(a[1] \, a[2] \, a[3]))
\;;
#X obj 880 743 until;
#X obj 880 767 f 0;
#X obj 912 767 + 1;
#X obj 900 821 *;
#X msg 941 745 0;
#X obj 900 845 t f f;
#X obj 880 791 t f f;
#X obj 879 927 pack f f f;
#X obj 880 719 unpack f f f;
#X obj 900 867 +;
#X obj 1020 876 +;
#X obj 900 900 array min \$9;
#X obj 1021 908 array max \$9;
#X obj 78 596 t b b;
#X obj 854 664 t b a b;
#X connect 0 0 1 0;
#X connect 1 0 2 0;
#X connect 2 0 3 0;
#X connect 2 1 42 0;
#X connect 3 0 29 0;
#X connect 4 0 58 0;
#X connect 5 0 6 0;
#X connect 6 0 27 0;
#X connect 6 1 26 0;
#X connect 7 0 8 0;
#X connect 8 0 9 1;
#X connect 9 0 10 0;
#X connect 10 0 22 0;
#X connect 10 1 11 0;
#X connect 10 2 24 1;
#X connect 10 2 56 2;
#X connect 10 2 55 2;
#X connect 11 0 12 0;
#X connect 11 1 13 0;
#X connect 11 2 24 0;
#X connect 12 0 14 0;
#X connect 13 0 12 1;
#X connect 14 0 3 1;
#X connect 15 0 17 0;
#X connect 16 0 15 1;
#X connect 17 0 3 0;
#X connect 18 0 20 0;
#X connect 19 0 21 0;
#X connect 20 0 19 1;
#X connect 21 0 22 0;
#X connect 21 1 11 0;
#X connect 22 0 15 0;
#X connect 22 1 16 0;
#X connect 23 0 3 0;
#X connect 23 1 41 0;
#X connect 23 1 42 0;
#X connect 24 0 14 1;
#X connect 24 0 17 1;
#X connect 25 0 33 0;
#X connect 26 0 9 0;
#X connect 26 0 19 0;
#X connect 26 1 7 0;
#X connect 26 1 18 0;
#X connect 26 2 41 0;
#X connect 27 0 1 0;
#X connect 27 1 24 1;
#X connect 27 1 55 2;
#X connect 27 1 56 2;
#X connect 27 2 41 0;
#X connect 28 0 4 0;
#X connect 29 0 28 0;
#X connect 29 0 31 0;
#X connect 29 1 30 0;
#X connect 30 0 28 1;
#X connect 30 1 31 1;
#X connect 31 0 32 0;
#X connect 32 0 57 0;
#X connect 33 0 35 1;
#X connect 34 0 35 0;
#X connect 35 0 36 0;
#X connect 35 0 23 0;
#X connect 36 0 35 1;
#X connect 37 0 40 0;
#X connect 38 0 37 1;
#X connect 39 0 37 0;
#X connect 42 0 3 1;
#X connect 44 0 45 0;
#X connect 45 0 46 0;
#X connect 45 0 50 0;
#X connect 46 0 45 1;
#X connect 47 0 49 0;
#X connect 48 0 45 1;
#X connect 49 0 53 0;
#X connect 49 1 54 0;
#X connect 50 0 51 0;
#X connect 50 1 47 0;
#X connect 51 0 43 0;
#X connect 52 0 44 0;
#X connect 52 1 47 1;
#X connect 52 1 55 1;
#X connect 52 1 56 1;
#X connect 52 2 54 1;
#X connect 52 2 53 1;
#X connect 53 0 55 0;
#X connect 54 0 56 0;
#X connect 55 0 51 1;
#X connect 56 0 51 2;
#X connect 57 0 39 0;
#X connect 57 1 38 0;
#X connect 58 0 57 0;
#X connect 58 1 52 0;
#X connect 58 2 48 0;
#X restore 106 340 pd drawWave;
#X obj 78 521 + 10;
#X msg 78 545 setOrder \$1;
#X obj 78 497 r \$10-drawOrder;
#X obj 741 38 r redrawFbos\$10;
#X obj 795 138 spigot 1;
#X msg 741 62 0;
#X obj 795 114 r redrawFbos;
#X obj 83 258 ofSetup \$11;
#X obj 83 312 t b b b;
#X obj 632 89 t b b;
#N canvas 417 65 1375 725 rotation 0;
#X obj 65 135 f 1;
#X obj 59 221 sel 1 2 3 4;
#X obj 26 14 r orientation;
#X obj 57 407 ofelia f \; \$1.rotation = 0 \; \$1.translation.x = 0
\; \$1.translation.y = 0 \;;
#X obj 79 332 ofelia f \; \$1.rotation = 180 \; \$1.translation.x =
ofGetWindowWidth() \; \$1.translation.y = ofGetWindowHeight() \;;
#X obj 417 239 ofelia f \; \$1.rotation = 90 \; \$1.translation.x =
ofGetWindowWidth() \; \$1.translation.y = 0 \;;
#X obj 194 100 ofelia f \; \$1.rotation = 270 \; \$1.translation.x
= 0 \; \$1.translation.y = ofGetWindowHeight() \;;
#X obj 16 99 outlet;
#X obj 137 268 ofelia f \; \$1.screen.x = ofGetWindowWidth() \; \$1.screen.y
= ofGetWindowHeight() \;;
#X obj 59 245 t b b;
#X obj 80 290 t b b;
#X obj 26 68 t b f;
#X obj 177 206 t b b;
#X obj 234 184 ofelia f \; \$1.screen.x = ofGetWindowHeight() \; \$1.screen.y
= ofGetWindowWidth() \;;
#X obj 108 106 inlet;
#X obj 108 130 t b f;
#X obj 65 159 spigot;
#X obj 195 56 t b b;
#X connect 0 0 16 0;
#X connect 1 0 9 0;
#X connect 1 1 10 0;
#X connect 1 2 12 0;
#X connect 1 3 17 0;
#X connect 2 0 11 0;
#X connect 9 0 3 0;
#X connect 9 1 8 0;
#X connect 10 0 4 0;
#X connect 10 1 8 0;
#X connect 11 0 7 0;
#X connect 11 1 0 0;
#X connect 12 0 5 0;
#X connect 12 1 13 0;
#X connect 14 0 15 0;
#X connect 15 0 0 0;
#X connect 15 1 16 1;
#X connect 16 0 1 0;
#X connect 17 0 6 0;
#X connect 17 1 13 0;
#X restore 808 70 pd rotation;
#X obj 110 287 bng 15 250 50 0 empty empty empty 17 7 0 10 #fcfcfc
#000000 #000000;
#X obj 837 408 r \$1-setPos;
#X obj 1113 524 ofelia f \; \$1.size = ofVec2f(a[1] \, a[2]) \;;
#X obj 837 502 ofelia f \; \$1.pos = ofVec2f(a[1] \, a[2]) \;;
#X obj 1113 405 r \$1-setSize;
#X obj 837 432 t b a;
#X obj 431 494 r \$1-visible;
#X obj 655 176 ofelia f \; if (\$1.parent == nil) then \; \$1.window.x
= \$1.screen.x \; \$1.window.y = \$1.screen.y \; else \; \$1.window.x
= (\$1.parent.autoPanded) and \$1.parent.actXs or (\$1.parent.Xpanded)
and \$1.parent.actXs or (\$1.parent.shrinked) and \$1.parent.shrS.x
or \$1.parent.xmin \; \$1.window.y = (\$1.parent.autoPanded) and \$1.parent.actYs
or (\$1.parent.Ypanded) and \$1.parent.actYs or (\$1.parent.shrinked)
and \$1.parent.shrS.y or \$1.parent.ymin \; end \;;
#X f 121;
#X obj 115 395 ofelia f \; local waveForm = a \; \$1 = waveForm.new(ofVec3f(\$2
\, \$3 \, \$4) \, ofVec2f(\$5 \, \$6) \, ofVec2f(\$7 \, \$8) \, \$10)
\; return 1 \;;
#X f 85;
#X obj 77 626 spigot;
#X obj 255 288 spigot;
#X obj 1113 487 list;
#X obj 1113 456 spigot;
#X obj 1113 429 t b a;
#X obj 837 456 spigot;
#X obj 837 480 list;
#X obj 655 137 spigot;
#X msg 462 558 setEnabled \$1;
#X obj 431 534 t f f;
#X text 96 41 creationArgs: id \, R \, G \, B \, proportional positionX
\, proportional position \, proportional sizeX \, proportional sizeY
\, sourceArray \, parent \, order;
#X obj 77 578 ofDraw \$12;
#N canvas 155 214 1381 818 Rand 0;
#X obj 37 7 inlet;
#X obj 37 31 symbol \$1;
#X obj 37 85 s testWaveform-getPosition;
#X obj 38 112 r \$1-returnPosition;
#X obj 38 136 unpack s f;
#X obj 105 210 t b f;
#X obj 105 234 random;
#X obj 38 447 array get;
#X obj 38 336 /;
#X obj 38 383 *;
#X obj 38 360 t f f;
#X obj 70 507 array set \$1-array;
#X obj 272 74 u_symbol2list e;
#X obj 272 122 route on;
#X obj 37 55 t s s;
#X msg 223 250 8;
#X obj 105 175 / 1;
#X msg 325 171 1;
#X obj 104 267 * 1;
#X obj 632 124 r randAction;
#X obj 606 173 f 35;
#X obj 632 148 * 100;
#X obj 605 199 t b f;
#X obj 605 223 random 100;
#X obj 605 247 moses 35;
#X msg 608 284 1;
#X msg 656 272 0;
#X obj 657 334 ofelia f \; \$1.value = a;
#X obj 827 93 list;
#X obj 827 34 r switchPosOff;
#X obj 828 142 route on;
#X obj 883 232 random 100;
#X obj 883 207 t b;
#X obj 980 160 u_symbol2list e;
#X obj 980 206 route On;
#X obj 980 184 list trim symbol;
#X obj 497 261 spigot;
#X msg 371 228 1;
#X obj 497 234 r switchOnsOn;
#X msg 324 293 0;
#X obj 323 336 s \$0-panning;
#X obj 272 421 s \$0-volume;
#X msg 272 397 1;
#X obj 411 410 s \$0-reverb;
#X obj 223 192 r bdFakt;
#X msg 223 216 set \$1;
#X obj 169 239 seed;
#X obj 660 196 seed;
#X obj 975 236 seed;
#X obj 521 466 s \$0-delay;
#X msg 521 439 bang;
#X msg 409 381 0;
#X obj 453 610 s \$0-hip;
#X obj 272 594 t b f;
#X obj 410 172 t b b;
#X obj 414 635 s \$0-lop;
#X obj 38 542 outlet;
#X obj 711 302 v \$1-state;
#X obj 883 256 moses 10;
#X obj 723 246 r \$1-state;
#X msg 272 570 10;
#X obj 420 127 spigot 1;
#X obj 474 73 inlet;
#X obj 38 161 t b b s;
#N canvas 556 89 450 300 running 0;
#X obj 58 32 inlet;
#X obj 58 76 spigot 1;
#X obj 58 100 outlet;
#X obj 179 103 ofelia f \; return \$1.running;
#X obj 212 24 inlet;
#X obj 179 141 == 0;
#X obj 179 189 del;
#X obj 275 172 r bpmMs;
#X obj 275 196 + 10;
#X obj 179 165 sel 0;
#X connect 0 0 1 0;
#X connect 1 0 2 0;
#X connect 3 0 5 0;
#X connect 4 0 3 0;
#X connect 5 0 1 1;
#X connect 5 0 9 0;
#X connect 6 0 2 0;
#X connect 7 0 8 0;
#X connect 8 0 6 1;
#X connect 9 0 6 0;
#X restore 8 261 pd running;
#X obj 272 98 route list symbol;
#X obj 828 119 route list symbol;
#X obj 38 471 t b a;
#X obj 128 377 v \$1ArraySize;
#X obj 38 312 v;
#X msg 84 293 symbol \$1Size;
#N canvas 558 95 450 300 loadPositionFromDisk 0;
#X obj 90 63 inlet;
#X obj 320 66 inlet;
#X obj 90 182 soundfiler;
#X msg 90 127 read -skip \$1 \$2 \$3;
#X obj 90 103 pack f s s;
#X obj 320 96 t b;
#X obj 320 120 symbol \$1;
#X msg 320 144 symbol \$1-array;
#X obj 90 206 t b;
#X obj 90 230 outlet;
#X connect 0 0 4 0;
#X connect 1 0 4 1;
#X connect 1 0 5 0;
#X connect 2 0 8 0;
#X connect 3 0 2 0;
#X connect 4 0 3 0;
#X connect 5 0 6 0;
#X connect 6 0 7 0;
#X connect 7 0 4 2;
#X connect 8 0 9 0;
#X restore 77 588 pd loadPositionFromDisk;
#X obj 38 407 spigot 1;
#X msg 182 436 0;
#X msg 182 465 1;
#X obj 113 475 spigot;
#X text 216 484 on appstart from array;
#X obj 182 549 r loadFile;
#X text 217 499 after the first selected or randomized file read directly
from disk;
#X obj 113 706 pack f f s;
#X obj 148 649 r loadArraySR;
#X obj 113 730 s \$1-sliceInfo;
#X obj 935 440 random 11;
#X obj 935 464 sel 0 1 2 3 4 5 6 7 8 9 10;
#X msg 915 498 -12;
#X msg 936 526 -10;
#X msg 961 548 -7;
#X msg 982 504 -5;
#X msg 1003 532 -2;
#X msg 1028 554 0;
#X msg 1036 501 2;
#X msg 1054 529 5;
#X msg 1081 499 7;
#X msg 1099 527 10;
#X msg 1126 501 12;
#X obj 986 614 s \$1-pitch;
#X obj 802 506 random 3;
#X obj 802 530 sel 1;
#X obj 802 475 t b;
#X obj 730 609 + 25;
#X obj 730 633 / 100;
#X obj 730 585 random 76;
#X obj 635 589 random 51;
#X obj 635 613 + 50;
#X obj 730 657 s \$1-length;
#X obj 873 339 random 100;
#X obj 873 363 moses 75;
#X msg 873 387 0;
#X msg 923 388 1;
#X obj 859 421 s \$1-backwards;
#X connect 0 0 1 0;
#X connect 1 0 14 0;
#X connect 3 0 4 0;
#X connect 4 0 63 0;
#X connect 4 1 8 1;
#X connect 4 1 16 0;
#X connect 5 0 6 0;
#X connect 5 1 6 1;
#X connect 6 0 18 0;
#X connect 7 0 67 0;
#X connect 8 0 10 0;
#X connect 9 0 72 0;
#X connect 9 0 75 0;
#X connect 10 0 9 0;
#X connect 10 1 7 1;
#X connect 10 1 68 0;
#X connect 12 0 28 1;
#X connect 12 0 65 0;
#X connect 13 0 15 0;
#X connect 13 0 25 0;
#X connect 13 0 37 0;
#X connect 13 0 39 0;
#X connect 13 0 42 0;
#X connect 13 0 51 0;
#X connect 13 0 50 0;
#X connect 13 0 60 0;
#X connect 13 0 98 0;
#X connect 13 1 17 0;
#X connect 13 1 54 0;
#X connect 14 0 2 0;
#X connect 14 1 12 0;
#X connect 15 0 16 1;
#X connect 15 0 18 1;
#X connect 16 0 5 0;
#X connect 17 0 16 1;
#X connect 17 0 18 1;
#X connect 18 0 9 1;
#X connect 19 0 21 0;
#X connect 20 0 22 0;
#X connect 21 0 20 1;
#X connect 22 0 23 0;
#X connect 22 1 24 1;
#X connect 23 0 24 0;
#X connect 24 0 25 0;
#X connect 24 1 26 0;
#X connect 25 0 27 0;
#X connect 25 0 57 0;
#X connect 26 0 27 0;
#X connect 26 0 57 0;
#X connect 28 0 66 0;
#X connect 29 0 28 0;
#X connect 30 0 33 0;
#X connect 30 1 32 0;
#X connect 31 0 58 0;
#X connect 32 0 31 0;
#X connect 33 0 35 0;
#X connect 34 1 32 0;
#X connect 35 0 34 0;
#X connect 36 0 25 0;
#X connect 37 0 36 1;
#X connect 38 0 36 0;
#X connect 39 0 40 0;
#X connect 42 0 41 0;
#X connect 44 0 45 0;
#X connect 45 0 15 0;
#X connect 46 0 6 0;
#X connect 47 0 23 0;
#X connect 48 0 31 0;
#X connect 50 0 49 0;
#X connect 51 0 43 0;
#X connect 53 0 55 0;
#X connect 53 1 52 0;
#X connect 54 0 40 0;
#X connect 54 0 41 0;
#X connect 54 0 43 0;
#X connect 54 0 49 0;
#X connect 54 0 55 0;
#X connect 54 0 61 0;
#X connect 54 1 52 0;
#X connect 54 1 82 0;
#X connect 54 1 101 0;
#X connect 54 1 105 0;
#X connect 58 1 26 0;
#X connect 59 0 27 0;
#X connect 60 0 53 0;
#X connect 61 0 20 0;
#X connect 62 0 61 1;
#X connect 63 0 64 0;
#X connect 63 1 64 1;
#X connect 63 2 70 0;
#X connect 63 2 7 2;
#X connect 64 0 69 0;
#X connect 65 0 13 0;
#X connect 65 1 13 0;
#X connect 65 2 54 0;
#X connect 65 2 17 0;
#X connect 66 0 30 0;
#X connect 66 1 30 0;
#X connect 67 0 56 0;
#X connect 67 1 11 0;
#X connect 69 0 8 0;
#X connect 70 0 69 1;
#X connect 71 0 56 0;
#X connect 72 0 7 0;
#X connect 72 0 79 0;
#X connect 73 0 72 1;
#X connect 74 0 75 1;
#X connect 75 0 71 0;
#X connect 75 0 79 0;
#X connect 77 0 71 1;
#X connect 77 0 74 0;
#X connect 77 0 73 0;
#X connect 77 0 79 2;
#X connect 79 0 81 0;
#X connect 80 0 79 1;
#X connect 82 0 83 0;
#X connect 83 0 84 0;
#X connect 83 1 85 0;
#X connect 83 2 86 0;
#X connect 83 3 87 0;
#X connect 83 4 88 0;
#X connect 83 5 89 0;
#X connect 83 6 90 0;
#X connect 83 7 91 0;
#X connect 83 8 92 0;
#X connect 83 9 93 0;
#X connect 83 10 94 0;
#X connect 84 0 95 0;
#X connect 85 0 95 0;
#X connect 86 0 95 0;
#X connect 87 0 95 0;
#X connect 88 0 95 0;
#X connect 89 0 95 0;
#X connect 90 0 95 0;
#X connect 91 0 95 0;
#X connect 92 0 95 0;
#X connect 93 0 95 0;
#X connect 94 0 95 0;
#X connect 96 0 97 0;
#X connect 97 0 88 0;
#X connect 97 1 95 0;
#X connect 98 0 96 0;
#X connect 98 0 102 0;
#X connect 99 0 100 0;
#X connect 100 0 104 0;
#X connect 101 0 99 0;
#X connect 102 0 103 0;
#X connect 103 0 100 0;
#X connect 105 0 106 0;
#X connect 106 0 107 0;
#X connect 106 1 108 0;
#X connect 107 0 109 0;
#X connect 108 0 109 0;
#X restore 255 314 pd Rand;
#X obj 461 151 r randPositions;
#X obj 461 175 spigot;
#X obj 461 206 t b b;
#N canvas 0 55 1792 761 Touch 0;
#X obj 47 46 ofMousePressed;
#X obj 283 677 outlet;
#X obj 313 63 r receiveMouse;
#X obj 47 82 spigot 1;
#X obj 346 438 ofMouseReleased;
#X obj 345 462 spigot;
#X msg 416 467 0;
#X obj 657 67 spigot;
#X obj 162 47 ofTouchDown;
#X obj 466 439 ofTouchUp;
#N canvas 695 42 664 629 orientation 0;
#X obj 37 37 inlet;
#X obj 37 211 spigot 1;
#X obj 91 187 == 1;
#X obj 37 235 outlet;
#X obj 151 113 r orientation;
#X obj 167 212 spigot;
#X obj 221 188 == 2;
#X obj 167 236 ofelia f \; return ofTable(ofGetWindowWidth()-a[1] \,
ofGetWindowHeight()-a[2]) \;;
#X f 67;
#X obj 66 339 spigot;
#X obj 152 448 spigot;
#X obj 66 363 ofelia f \; return ofTable(a[2] \, (ofGetWindowWidth()
- a[1])) \;;
#X f 67;
#X obj 152 472 ofelia f \; return ofTable((ofGetWindowHeight()-a[2])
\, a[1]) \;;
#X f 67;
#X obj 120 315 == 3;
#X obj 206 424 == 4;
#X connect 0 0 1 0;
#X connect 0 0 5 0;
#X connect 0 0 8 0;
#X connect 0 0 9 0;
#X connect 1 0 3 0;
#X connect 2 0 1 1;
#X connect 4 0 2 0;
#X connect 4 0 6 0;
#X connect 4 0 12 0;
#X connect 4 0 13 0;
#X connect 5 0 7 0;
#X connect 6 0 5 1;
#X connect 7 0 3 0;
#X connect 8 0 10 0;
#X connect 9 0 11 0;
#X connect 10 0 3 0;
#X connect 11 0 3 0;
#X connect 12 0 8 1;
#X connect 13 0 9 1;
#X restore 47 107 pd orientation;
#X obj 47 150 ofelia f \; if (\$1.parent == nil or \$1.parent.autoPanded
or \$1.parent.overPanded) then \; local xMore = (\$1.parent == nil)
and \$1.pos.x*\$1.window.x or (\$1.parent.autoPanded) and \$1.pos.x*\$1.window.x
+ \$1.parent.actXp or \$1.pos.x*\$1.window.x + \$1.parent.actXp + \$1.parent.height
* 7 \; local yMore = (\$1.parent == nil) and \$1.pos.y*\$1.window.y
or (\$1.parent.autoPanded) and \$1.pos.y*\$1.window.y + \$1.parent.actYp
or \$1.pos.y*\$1.window.y + \$1.parent.actYp + \$1.parent.height *
7 \; if (not (\$1.parent == nil) and \$1.parent.shrinked) then \; if
(\$1.parent.xmin > \$1.screen.x-\$1.parent.height*7) then \; xMore
= (\$1.screen.x-\$1.parent.height*7)*\$1.pos.x + \$1.parent.height*7
\; end \; if (\$1.parent.ymin > \$1.screen.y-\$1.parent.height*7) then
\; xMore = (\$1.screen.y-\$1.parent.height*7)*\$1.pos.y + \$1.parent.height*7
\; end \; end \; local xLess = xMore+\$1.size.x*\$1.window.x \; local
yLess = yMore+\$1.size.y*\$1.window.y \; if (a[1] > xMore and a[1]
< xLess and a[2] > yMore and a[2] < yLess) then \; \$1.value = (\$1.value
== 0) and 1 or 0 \; return \$1.value \; end \; end \;;
#X f 219;
#X obj 696 41 r \$10-overPandedMouse;
#X msg 616 467 1;
#X obj 295 571 f;
#X obj 346 486 t b;
#X msg 298 514 stop;
#X obj 286 616 list prepend;
#X obj 346 534 t b b;
#X obj 174 548 del 200;
#X msg 206 506 stop;
#X msg 182 618 longPress;
#X obj 174 579 t b b;
#X msg 363 579 click;
#X obj 346 510 del 250;
#X obj 483 518 spigot;
#X msg 524 496 1;
#X msg 543 525 0;
#X msg 485 612 doubleClick;
#X obj 483 569 t b b;
#X obj 283 652 list trim;
#X obj 41 628 r \$1-toggleState;
#X obj 846 498 spigot;
#X obj 825 436 ofMouseDragged;
#X obj 958 435 ofTouchMoved;
#X obj 225 469 t f b b f;
#X obj 782 559 f;
#X obj 782 583 == 0;
#X obj 782 607 change;
#X msg 848 583 set -1;
#X obj 853 522 t a b b;
#X obj 784 632 ofelia f \; \$1.value = a;
#X obj 1013 514 inlet;
#X obj 1011 583 list;
#X obj 1013 538 spigot;
#X msg 1074 515 1;
#X obj 1080 460 spigot;
#X msg 1081 546 0;
#X obj 1157 545 s openPositionDrop;
#N canvas 0 250 1792 585 positionDrop 0;
#X obj 126 42 inlet;
#X obj 126 66 spigot;
#X obj 239 42 r openPositionDrop;
#X obj 191 16 inlet;
#X obj 61 437 spigot;
#X obj 16 363 r dropPosition;
#X obj 59 527 print \$1-droppedPositionFrom;
#X msg 128 445 0;
#X obj 126 145 ofelia f \; if (\$1.parent == nil or \$1.parent.autoPanded
or \$1.parent.overPanded) then \; local xMore = (\$1.parent == nil)
and \$1.pos.x*\$1.window.x or (\$1.parent.autoPanded) and \$1.pos.x*\$1.window.x
+ \$1.parent.actXp or \$1.pos.x*\$1.window.x + \$1.parent.actXp + \$1.parent.height
* 7 \; local yMore = (\$1.parent == nil) and \$1.pos.y*\$1.window.y
or (\$1.parent.autoPanded) and \$1.pos.y*\$1.window.y + \$1.parent.actYp
or \$1.pos.y*\$1.window.y + \$1.parent.actYp + \$1.parent.height *
7 \; if (not (\$1.parent == nil) and \$1.parent.shrinked) then \; if
(\$1.parent.xmin > \$1.screen.x-\$1.parent.height*7) then \; xMore
= (\$1.screen.x-\$1.parent.height*7)*\$1.pos.x + \$1.parent.height*7
\; end \; if (\$1.parent.ymin > \$1.screen.y-\$1.parent.height*7) then
\; xMore = (\$1.screen.y-\$1.parent.height*7)*\$1.pos.y + \$1.parent.height*7
\; end \; end \; local xLess = xMore+\$1.size.x*\$1.window.x \; local
yLess = yMore+\$1.size.y*\$1.window.y \; if (a[1] > xMore and a[1]
< xLess and a[2] > yMore and a[2] < yLess) then \; return 1 \; else
\; return 0 \; end \; end \;;
#X f 219;
#X obj 126 90 spigot;
#X obj 199 81 r \$1-visible;
#X obj 544 481 array size;
#X obj 545 512 array size \$1-array;
#X msg 627 460 symbol \$1-array;
#X obj 448 439 t b b b a;
#X obj 406 496 array get;
#X obj 406 520 array set \$1-array;
#X obj 448 463 outlet;
#N canvas 695 42 664 629 orientation 0;
#X obj 37 37 inlet;
#X obj 37 211 spigot 1;
#X obj 91 187 == 1;
#X obj 37 235 outlet;
#X obj 151 113 r orientation;
#X obj 167 212 spigot;
#X obj 221 188 == 2;
#X obj 167 236 ofelia f \; return ofTable(ofGetWindowWidth()-a[1] \,
ofGetWindowHeight()-a[2]) \;;
#X f 67;
#X obj 66 339 spigot;
#X obj 152 448 spigot;
#X obj 66 363 ofelia f \; return ofTable(a[2] \, (ofGetWindowWidth()
- a[1])) \;;
#X f 67;
#X obj 152 472 ofelia f \; return ofTable((ofGetWindowHeight()-a[2])
\, a[1]) \;;
#X f 67;
#X obj 120 315 == 3;
#X obj 206 424 == 4;
#X connect 0 0 1 0;
#X connect 0 0 5 0;
#X connect 0 0 8 0;
#X connect 0 0 9 0;
#X connect 1 0 3 0;
#X connect 2 0 1 1;
#X connect 4 0 2 0;
#X connect 4 0 6 0;
#X connect 4 0 12 0;
#X connect 4 0 13 0;
#X connect 5 0 7 0;
#X connect 6 0 5 1;
#X connect 7 0 3 0;
#X connect 8 0 10 0;
#X connect 9 0 11 0;
#X connect 10 0 3 0;
#X connect 11 0 3 0;
#X connect 12 0 8 1;
#X connect 13 0 9 1;
#X restore 126 116 pd orientation;
#N canvas 471 52 1305 510 copyVals 0;
#X obj 571 113 inlet;
#X obj 489 450 s \$0-reverb;
#X obj 641 452 s \$0-delay;
#X obj 770 461 s \$0-hip;
#X obj 883 450 s \$0-lop;
#X obj 976 456 s \$0-panning;
#X obj 245 389 v;
#X obj 571 137 t b s;
#X msg 289 363 symbol \$1-volume;
#X obj 476 360 v;
#X obj 624 408 v;
#X msg 516 342 symbol \$1-reverb;
#X msg 651 381 symbol \$1-delay;
#X obj 754 428 v;
#X msg 794 410 symbol \$1-hip;
#X obj 893 424 v;
#X msg 933 406 symbol \$1-lop;
#X obj 953 374 v;
#X msg 994 352 symbol \$1-panning;
#X obj 1006 241 v;
#X msg 1045 217 symbol \$1-state;
#X obj 1029 323 s \$1-state;
#X obj 257 469 print \$0-volume;
#X connect 0 0 7 0;
#X connect 6 0 22 0;
#X connect 7 0 6 0;
#X connect 7 0 9 0;
#X connect 7 0 10 0;
#X connect 7 0 13 0;
#X connect 7 0 15 0;
#X connect 7 0 19 0;
#X connect 7 0 17 0;
#X connect 7 1 8 0;
#X connect 7 1 11 0;
#X connect 7 1 12 0;
#X connect 7 1 14 0;
#X connect 7 1 16 0;
#X connect 7 1 18 0;
#X connect 7 1 20 0;
#X connect 8 0 6 1;
#X connect 9 0 1 0;
#X connect 10 0 2 0;
#X connect 11 0 9 1;
#X connect 12 0 10 1;
#X connect 13 0 3 0;
#X connect 14 0 13 1;
#X connect 15 0 4 0;
#X connect 16 0 15 1;
#X connect 17 0 5 0;
#X connect 18 0 17 1;
#X connect 19 0 21 0;
#X connect 20 0 19 1;
#X restore 141 486 pd copyVals;
#X connect 0 0 1 0;
#X connect 1 0 9 0;
#X connect 2 0 1 1;
#X connect 3 0 1 1;
#X connect 4 0 6 0;
#X connect 4 0 7 0;
#X connect 4 0 14 0;
#X connect 4 0 19 0;
#X connect 5 0 4 0;
#X connect 7 0 4 1;
#X connect 8 0 4 1;
#X connect 9 0 18 0;
#X connect 10 0 9 1;
#X connect 11 0 12 0;
#X connect 13 0 11 1;
#X connect 13 0 15 2;
#X connect 14 0 17 0;
#X connect 14 1 15 0;
#X connect 14 2 11 0;
#X connect 14 3 13 0;
#X connect 15 0 16 0;
#X connect 18 0 8 0;
#X restore 1323 456 pd positionDrop;
#X obj 1155 518 t b f;
#X msg 1451 438 0;
#X obj 1081 570 t f b;
#X obj 1296 554 symbol \$1;
#X obj 1296 578 s dropPosition;
#X obj 1323 480 outlet;
#X msg 918 502 0;
#X obj 820 461 spigot;
#X obj 885 464 r \$1-visible;
#X obj 753 490 spigot;
#X obj 909 80 inlet enabled;
#X obj 1011 634 ofelia f \; ofPushMatrix() \; ofTranslate(\$1.translation.x
\, \$1.translation.y) \; ofRotateZDeg(\$1.rotation) \; \$1.fbo:draw(a[1]-\$1.fbo:getWidth()/2
\, a[2]-\$1.fbo:getHeight()/2) \; ofPopMatrix() \;;
#N canvas 695 42 664 629 orientation 0;
#X obj 37 37 inlet;
#X obj 37 211 spigot 1;
#X obj 91 187 == 1;
#X obj 37 235 outlet;
#X obj 151 113 r orientation;
#X obj 167 212 spigot;
#X obj 221 188 == 2;
#X obj 167 236 ofelia f \; return ofTable(ofGetWindowWidth()-a[1] \,
ofGetWindowHeight()-a[2]) \;;
#X f 67;
#X obj 66 339 spigot;
#X obj 152 448 spigot;
#X obj 66 363 ofelia f \; return ofTable(a[2] \, (ofGetWindowWidth()
- a[1])) \;;
#X f 67;
#X obj 152 472 ofelia f \; return ofTable((ofGetWindowHeight()-a[2])
\, a[1]) \;;
#X f 67;
#X obj 120 315 == 3;
#X obj 206 424 == 4;
#X connect 0 0 1 0;
#X connect 0 0 5 0;
#X connect 0 0 8 0;
#X connect 0 0 9 0;
#X connect 1 0 3 0;
#X connect 2 0 1 1;
#X connect 4 0 2 0;
#X connect 4 0 6 0;
#X connect 4 0 12 0;
#X connect 4 0 13 0;
#X connect 5 0 7 0;
#X connect 6 0 5 1;
#X connect 7 0 3 0;
#X connect 8 0 10 0;
#X connect 9 0 11 0;
#X connect 10 0 3 0;
#X connect 11 0 3 0;
#X connect 12 0 8 1;
#X connect 13 0 9 1;
#X restore 1011 605 pd orientation;
#X obj 706 458 pipe 100;
#X msg 643 432 clear;
#X obj 44 705 ofelia f \; \$1.value = (\$1.value == 0) and 1 or 0 \;
return \$1.value \;;
#X obj 44 781 v \$1-state;
#X obj 1652 468 inlet;
#X obj 1652 492 sel 0 1;
#X obj 1673 517 ofelia f \; \$1.value = (\$1.value == 0) and 1 or 0
\; return \$1.value;
#X connect 0 0 3 0;
#X connect 0 0 7 0;
#X connect 2 0 3 1;
#X connect 3 0 10 0;
#X connect 4 0 5 0;
#X connect 4 0 46 0;
#X connect 4 0 56 0;
#X connect 5 0 6 0;
#X connect 5 0 15 0;
#X connect 6 0 5 1;
#X connect 8 0 7 0;
#X connect 8 0 3 0;
#X connect 9 0 5 0;
#X connect 9 0 46 0;
#X connect 9 0 56 0;
#X connect 10 0 11 0;
#X connect 11 0 35 0;
#X connect 12 0 7 1;
#X connect 13 0 5 1;
#X connect 13 0 63 0;
#X connect 14 0 17 0;
#X connect 14 0 27 0;
#X connect 15 0 20 0;
#X connect 15 0 24 0;
#X connect 15 0 26 0;
#X connect 15 0 64 0;
#X connect 16 0 24 0;
#X connect 17 0 30 0;
#X connect 17 0 47 0;
#X connect 17 0 56 0;
#X connect 18 0 14 0;
#X connect 18 1 23 0;
#X connect 19 0 22 0;
#X connect 20 0 19 0;
#X connect 21 0 17 1;
#X connect 22 0 14 0;
#X connect 22 0 65 0;
#X connect 22 1 21 0;
#X connect 22 1 6 0;
#X connect 23 0 17 1;
#X connect 24 0 18 0;
#X connect 25 0 16 0;
#X connect 25 0 29 0;
#X connect 26 0 25 1;
#X connect 27 0 25 1;
#X connect 28 0 17 1;
#X connect 29 0 14 0;
#X connect 29 0 20 0;
#X connect 29 1 28 0;
#X connect 29 1 6 0;
#X connect 30 0 1 0;
#X connect 31 0 65 0;
#X connect 32 0 16 0;
#X connect 32 0 6 0;
#X connect 32 0 20 0;
#X connect 32 0 27 0;
#X connect 32 0 40 0;
#X connect 33 0 49 0;
#X connect 33 0 57 0;
#X connect 34 0 49 0;
#X connect 34 0 57 0;
#X connect 35 0 14 1;
#X connect 35 1 16 0;
#X connect 35 1 25 0;
#X connect 35 2 19 0;
#X connect 35 2 13 0;
#X connect 35 3 36 1;
#X connect 36 0 37 0;
#X connect 37 0 38 0;
#X connect 38 0 41 0;
#X connect 39 0 38 0;
#X connect 40 0 43 1;
#X connect 40 1 36 0;
#X connect 40 2 39 0;
#X connect 40 2 45 0;
#X connect 42 0 44 0;
#X connect 43 0 62 0;
#X connect 44 0 43 0;
#X connect 45 0 44 1;
#X connect 45 0 46 1;
#X connect 45 0 50 0;
#X connect 46 0 47 0;
#X connect 47 0 44 1;
#X connect 47 0 52 0;
#X connect 49 0 55 0;
#X connect 50 0 51 0;
#X connect 50 1 48 0;
#X connect 51 0 49 1;
#X connect 52 0 48 0;
#X connect 52 0 46 1;
#X connect 52 1 53 0;
#X connect 53 0 54 0;
#X connect 56 0 32 1;
#X connect 57 0 32 0;
#X connect 58 0 57 1;
#X connect 58 0 59 1;
#X connect 59 0 32 1;
#X connect 59 0 20 0;
#X connect 60 0 8 0;
#X connect 60 0 0 0;
#X connect 60 0 9 0;
#X connect 60 0 4 0;
#X connect 60 0 33 0;
#X connect 60 0 34 0;
#X connect 62 0 61 0;
#X connect 63 0 59 0;
#X connect 64 0 63 0;
#X connect 65 0 66 0;
#X connect 67 0 68 0;
#X connect 68 0 15 0;
#X connect 68 1 69 0;
#X connect 69 0 35 0;
#X restore 301 597 pd Touch;
#X obj 541 187 r \$1-rand;
#N canvas 581 25 1663 1034 play 1;
#X obj 253 287 r \$1-play;
#X obj 285 338 ofelia f \; return \$1.value \;;
#X msg 118 434 1;
#X msg 155 434 0;
#X obj 123 462 ofelia f \; \$1.running = a \;;
#X obj 285 415 t b b;
#X obj 128 687 switch~;
#X msg 128 657 1;
#X obj 285 553 *~;
#X obj 311 580 line~;
#X msg 131 504 0;
#X obj 1249 756 pan~;
#X obj 1330 735 - 50;
#X obj 1456 719 r \$0-panning;
#X obj 1456 772 route bang;
#X msg 607 537 1;
#X obj 602 333 route bang;
#X obj 602 309 r \$0-volume;
#X msg 669 357 set \$1;
#X obj 1330 695 moses 35;
#X obj 603 389 random 51;
#X obj 603 413 + 20;
#X obj 851 313 route bang;
#X msg 918 337 set \$1;
#X obj 851 289 r \$0-reverb;
#X msg 814 431 0;
#X obj 789 536 throw~ reverb;
#X obj 852 369 random 101;
#X msg 904 416 0;
#X obj 852 417 t b;
#X obj 852 489 / 100;
#X obj 852 441 random 50;
#X obj 789 512 *~ 0;
#X obj 852 465 + 5;
#X obj 1330 671 random 70;
#X obj 680 384 seed;
#X obj 967 367 seed;
#X obj 950 424 seed;
#X obj 1330 647 seed;
#X obj 852 393 moses 65;
#X obj 1192 385 route bang;
#X msg 1259 409 set \$1;
#X obj 1193 441 random 101;
#X msg 1245 488 0;
#X obj 1193 489 t b;
#X obj 1193 561 / 100;
#X obj 1095 510 *~ 0;
#X obj 1193 537 + 5;
#X obj 1308 439 seed;
#X obj 1291 496 seed;
#X msg 1118 429 0;
#X obj 1192 361 r \$0-delay;
#X obj 1193 465 moses 35;
#X obj 1095 534 throw~ delay;
#X obj 1193 513 random 40;
#X obj 285 641 hip~;
#X obj 329 641 hip~;
#X obj 331 736 lop~;
#X obj 379 737 lop~;
#X obj 587 622 route bang;
#X obj 717 631 seed;
#X obj 587 594 r \$0-hip;
#X obj 587 675 pow 2;
#X obj 587 699 + 10;
#X obj 936 693 r \$0-lop;
#X obj 787 717 +;
#X msg 884 640 8000;
#X obj 884 664 -;
#X obj 884 691 t b f;
#X obj 787 650 random;
#X obj 930 549 == 10;
#X obj 930 573 change;
#X obj 930 597 sel 1;
#X msg 1008 621 set 20000;
#X obj 587 650 random 60;
#X msg 930 621 set 8000;
#X msg 374 597 0 15;
#X obj 1268 578 v \$1-delay;
#X obj 920 508 v \$1-reverb;
#X obj 670 462 v \$1-volume;
#X obj 1375 791 v \$1-panning;
#X obj 936 717 route bang;
#X obj 655 718 v \$1-hip;
#X obj 1044 736 v \$1-lop;
#X obj 787 622 t b b;
#X msg 349 555 \$1 5;
#X obj 253 311 t a b;
#X obj 469 267 position_midiOut \$14;
#X msg 451 235 3;
#X msg 491 234 5;
#X msg 537 234 1;
#X obj 469 291 outlet;
#X obj 491 210 sel 0 1;
#X obj 491 372 f 0;
#X obj 285 387 sel 1 0;
#X obj 648 286 sel 0;
#X obj 646 156 ofelia f \; return \$1.value;
#X obj 646 194 pipe 1;
#X obj 789 83 inlet visible;
#X msg 789 248 0;
#X obj 789 137 sel 0 1;
#X obj 285 452 v \$1ArraySize;
#X msg 285 476 0 \$1;
#X obj 1390 717 - 20;
#X obj 1249 785 throw~ outL;
#X obj 1274 813 throw~ outR;
#X obj 603 443 / 150;
#X obj 789 107 t f f;
#X obj 789 171 del \$12;
#X obj 789 201 del \$13;
#X obj 285 529 tabplayer~ \$1;
#X obj 424 383 r bpmMs;
#X obj 421 414 del;
#X obj 369 487 del 15;
#X connect 0 0 86 0;
#X connect 1 0 94 0;
#X connect 1 0 93 1;
#X connect 2 0 4 0;
#X connect 3 0 4 0;
#X connect 5 0 2 0;
#X connect 5 0 101 0;
#X connect 5 1 15 0;
#X connect 5 1 25 0;
#X connect 5 1 50 0;
#X connect 5 1 7 0;
#X connect 7 0 6 0;
#X connect 8 0 55 0;
#X connect 9 0 8 1;
#X connect 10 0 6 0;
#X connect 11 0 104 0;
#X connect 11 1 105 0;
#X connect 12 0 11 1;
#X connect 12 0 80 0;
#X connect 13 0 14 0;
#X connect 14 0 34 0;
#X connect 14 1 11 1;
#X connect 14 1 80 0;
#X connect 15 0 85 0;
#X connect 16 0 20 0;
#X connect 16 1 18 0;
#X connect 16 1 79 0;
#X connect 17 0 16 0;
#X connect 18 0 15 0;
#X connect 19 0 12 0;
#X connect 19 1 103 0;
#X connect 20 0 21 0;
#X connect 21 0 106 0;
#X connect 22 0 27 0;
#X connect 22 1 23 0;
#X connect 22 1 78 0;
#X connect 23 0 25 0;
#X connect 24 0 22 0;
#X connect 25 0 32 1;
#X connect 27 0 39 0;
#X connect 28 0 23 0;
#X connect 29 0 31 0;
#X connect 30 0 23 0;
#X connect 30 0 78 0;
#X connect 31 0 33 0;
#X connect 32 0 26 0;
#X connect 33 0 30 0;
#X connect 34 0 19 0;
#X connect 35 0 20 0;
#X connect 36 0 27 0;
#X connect 37 0 31 0;
#X connect 38 0 34 0;
#X connect 39 0 29 0;
#X connect 39 1 28 0;
#X connect 40 0 42 0;
#X connect 40 1 41 0;
#X connect 40 1 77 0;
#X connect 41 0 50 0;
#X connect 42 0 52 0;
#X connect 43 0 41 0;
#X connect 44 0 54 0;
#X connect 45 0 41 0;
#X connect 45 0 77 0;
#X connect 46 0 53 0;
#X connect 47 0 45 0;
#X connect 48 0 42 0;
#X connect 49 0 54 0;
#X connect 50 0 46 1;
#X connect 51 0 40 0;
#X connect 52 0 44 0;
#X connect 52 1 43 0;
#X connect 54 0 47 0;
#X connect 55 0 56 0;
#X connect 56 0 57 0;
#X connect 57 0 58 0;
#X connect 58 0 32 0;
#X connect 58 0 46 0;
#X connect 58 0 11 0;
#X connect 59 0 74 0;
#X connect 59 1 55 1;
#X connect 59 1 56 1;
#X connect 59 1 82 0;
#X connect 59 1 68 0;
#X connect 60 0 74 0;
#X connect 60 0 69 0;
#X connect 61 0 59 0;
#X connect 62 0 63 0;
#X connect 63 0 55 1;
#X connect 63 0 56 1;
#X connect 63 0 68 0;
#X connect 63 0 82 0;
#X connect 64 0 81 0;
#X connect 65 0 57 1;
#X connect 65 0 58 1;
#X connect 65 0 83 0;
#X connect 66 0 67 0;
#X connect 67 0 69 1;
#X connect 68 0 66 0;
#X connect 68 1 67 1;
#X connect 68 1 65 1;
#X connect 68 1 70 0;
#X connect 69 0 65 0;
#X connect 70 0 71 0;
#X connect 71 0 72 0;
#X connect 72 0 75 0;
#X connect 72 1 73 0;
#X connect 73 0 66 0;
#X connect 74 0 62 0;
#X connect 75 0 66 0;
#X connect 76 0 9 0;
#X connect 81 0 84 0;
#X connect 81 1 83 0;
#X connect 81 1 58 1;
#X connect 81 1 57 1;
#X connect 84 0 69 0;
#X connect 84 1 66 0;
#X connect 85 0 9 0;
#X connect 86 1 1 0;
#X connect 86 1 88 0;
#X connect 87 0 91 0;
#X connect 87 0 95 0;
#X connect 88 0 87 0;
#X connect 89 0 87 0;
#X connect 90 0 87 0;
#X connect 92 0 89 0;
#X connect 92 1 90 0;
#X connect 93 0 92 0;
#X connect 94 0 5 0;
#X connect 94 0 2 0;
#X connect 94 1 2 0;
#X connect 94 1 112 0;
#X connect 95 0 96 0;
#X connect 96 0 97 0;
#X connect 97 0 92 0;
#X connect 98 0 107 0;
#X connect 99 0 87 2;
#X connect 100 0 108 0;
#X connect 100 1 96 0;
#X connect 101 0 102 0;
#X connect 102 0 110 0;
#X connect 103 0 12 0;
#X connect 103 0 80 0;
#X connect 103 0 11 1;
#X connect 106 0 18 0;
#X connect 106 0 79 0;
#X connect 107 0 100 0;
#X connect 107 1 87 1;
#X connect 108 0 109 0;
#X connect 109 0 99 0;
#X connect 110 0 8 0;
#X connect 110 1 3 0;
#X connect 110 1 76 0;
#X connect 110 1 113 0;
#X connect 111 0 112 1;
#X connect 112 0 3 0;
#X connect 112 0 93 0;
#X connect 113 0 3 0;
#X connect 113 0 93 0;
#X connect 113 0 10 0;
#X restore 696 578 pd play;
#X obj 347 847 ofelia f \; return \$1.value;
#X msg 694 552 1;
#X obj 301 792 route doubleClick longPress click;
#X obj 1280 362 array define \$1-array 240000;
#X obj 396 253 f \$12;
#X obj 414 113 r xLength;
#X obj 396 277 *;
#X obj 396 225 spigot;
#X obj 396 301 + \$13;
#X obj 396 348 del;
#X obj 255 108 f \$12;
#X obj 255 132 *;
#X obj 255 156 + \$13;
#X obj 255 210 del;
#X obj 431 685 sel 1;
#X obj 431 661 change;
#X obj 463 626 del;
#X obj 463 601 sel 1;
#X msg 527 606 stop;
#X obj 255 180 * 2;
#X obj 396 325 * 2;
#X obj 342 162 r performance;
#X obj 301 816 t b b;
#X obj 347 885 sel 1;
#X obj 396 372 t 1 b;
#X obj 474 881 t b;
#X obj 474 905 symbol \$1;
#X msg 474 929 \; \$1-state 1;
#X connect 1 0 24 0;
#X connect 3 0 4 1;
#X connect 5 0 6 0;
#X connect 6 0 36 0;
#X connect 7 0 5 0;
#X connect 8 0 10 0;
#X connect 8 0 14 0;
#X connect 9 0 14 0;
#X connect 10 0 9 1;
#X connect 11 0 9 0;
#X connect 12 0 13 0;
#X connect 13 1 4 0;
#X connect 13 2 1 0;
#X connect 14 0 26 0;
#X connect 14 0 54 0;
#X connect 14 1 32 0;
#X connect 15 0 14 0;
#X connect 16 0 13 0;
#X connect 17 0 21 0;
#X connect 20 0 29 0;
#X connect 21 0 30 0;
#X connect 21 1 31 1;
#X connect 22 0 34 0;
#X connect 22 0 43 0;
#X connect 24 0 28 1;
#X connect 24 0 30 1;
#X connect 24 0 25 1;
#X connect 24 0 15 0;
#X connect 24 0 32 1;
#X connect 24 0 26 1;
#X connect 25 0 2 0;
#X connect 26 0 4 2;
#X connect 27 0 18 0;
#X connect 28 0 27 0;
#X connect 29 0 28 0;
#X connect 29 1 27 1;
#X connect 30 0 31 0;
#X connect 31 0 19 0;
#X connect 32 0 23 0;
#X connect 33 0 36 0;
#X connect 33 0 41 0;
#X connect 34 0 59 0;
#X connect 34 1 33 0;
#X connect 34 1 39 1;
#X connect 34 1 51 1;
#X connect 34 1 61 0;
#X connect 36 0 25 0;
#X connect 36 0 41 1;
#X connect 37 0 26 0;
#X connect 37 0 45 0;
#X connect 38 0 39 0;
#X connect 39 0 40 0;
#X connect 40 0 51 0;
#X connect 41 0 46 0;
#X connect 41 1 26 0;
#X connect 42 0 40 0;
#X connect 43 0 41 2;
#X connect 44 0 67 0;
#X connect 45 0 43 0;
#X connect 46 0 66 0;
#X connect 46 2 45 0;
#X connect 48 0 50 0;
#X connect 49 0 50 1;
#X connect 49 0 55 1;
#X connect 50 0 52 0;
#X connect 51 0 48 0;
#X connect 52 0 64 0;
#X connect 53 0 68 0;
#X connect 54 0 55 0;
#X connect 55 0 56 0;
#X connect 56 0 63 0;
#X connect 57 0 26 0;
#X connect 58 0 40 0;
#X connect 58 0 62 0;
#X connect 59 0 58 0;
#X connect 60 0 54 0;
#X connect 61 0 60 0;
#X connect 62 0 60 0;
#X connect 63 0 57 0;
#X connect 64 0 53 0;
#X connect 65 0 63 1;
#X connect 65 0 64 1;
#X connect 66 0 68 0;
#X connect 66 1 44 0;
#X connect 67 1 37 1;
#X connect 67 1 69 0;
#X connect 68 0 37 1;
#X connect 68 1 37 0;
#X connect 69 0 70 0;
#X connect 70 0 71 0;
