#N canvas 608 266 450 300 10;
#X obj 57 51 inlet~;
#X obj 126 136 expr sqrt(1-$f1) \; sqrt($f1);
#X obj 126 232 outlet~;
#X obj 57 232 outlet~;
#X obj 58 199 *~ 0.7;
#X obj 125 203 *~ 0.7;
#X obj 126 11 inlet;
#X obj 126 111 + 0.5;
#X obj 126 71 / 100;
#X obj 126 32 moses -50;
#X obj 177 52 moses 50;
#X connect 0 0 4 0;
#X connect 0 0 5 0;
#X connect 1 0 4 1;
#X connect 1 1 5 1;
#X connect 4 0 3 0;
#X connect 5 0 2 0;
#X connect 6 0 9 0;
#X connect 7 0 1 0;
#X connect 8 0 7 0;
#X connect 9 1 10 0;
#X connect 10 0 8 0;
