#N canvas 903 196 771 782 10;
#X obj 167 97 inlet;
#X obj 149 595 outlet;
#X obj 167 147 t b f;
#X obj 167 169 f \$1;
#X obj 167 190 noteout;
#X obj 148 438 notein;
#X obj 148 489 == \$1;
#X obj 148 510 sel 1;
#X obj 148 531 f;
#X obj 148 562 > 0;
#X obj 443 102 inlet;
#X obj 167 118 spigot;
#X obj 148 459 spigot;
#X obj 548 131 inlet;
#X connect 0 0 11 0;
#X connect 2 0 3 0;
#X connect 2 1 4 1;
#X connect 3 0 4 0;
#X connect 5 0 12 0;
#X connect 5 1 8 1;
#X connect 6 0 7 0;
#X connect 7 0 8 0;
#X connect 8 0 9 0;
#X connect 9 0 1 0;
#X connect 10 0 11 1;
#X connect 10 0 12 1;
#X connect 11 0 2 0;
#X connect 12 0 6 0;
#X connect 13 0 2 0;
#X coords 0 782 1 781 17 17 0;
