#N canvas 0 25 442 312 12;
#X obj 77 39 r seed;
#X obj 77 87 *;
#X msg 77 114 seed \$1;
#X obj 77 63 t f b;
#X obj 111 87 random \$0;
#X obj 77 138 outlet;
#X connect 0 0 3 0;
#X connect 1 0 2 0;
#X connect 2 0 5 0;
#X connect 3 0 1 0;
#X connect 3 1 4 0;
#X connect 4 0 1 1;
