#N canvas 63 25 1729 1018 12;
#X declare -path SQLdb;
#X obj 88 96 SQLdb \$0-db;
#X obj 317 40 declare -path SQLdb;
#X obj 88 121 SQLdb-helper;
#X msg 88 70 open \$1;
#X msg 162 70 close;
#X obj 88 31 bng 15 250 50 0 empty empty empty 17 7 0 10 #fcfcfc #000000 #000000;
#X obj 88 49 openpanel;
#X msg 88 145 open;
#X obj 284 217 t b;
#X obj 220 135 bng 15 250 50 0 empty empty empty 17 7 0 10 #fcfcfc #000000 #000000;
#X obj 220 176 SQLstatement-send;
#X obj 238 294 make-list;
#X obj 220 154 t b b b;
#X obj 238 243 SQLquery \$0-db;
#X obj 250 323 list;
#X msg 286 516 \$1 <;
#X msg 352 497 set \, adddollar 1 \, add2 \$1;
#X msg 351 437 symbol <;
#X msg 371 467 symbol >;
#X msg 422 438 symbol ==;
#X msg 442 468 symbol !=;
#X msg 509 431 symbol <=;
#X msg 529 461 symbol >=;
#X obj 233 350 list split 4;
#X obj 315 377 list split 3;
#X obj 248 448 list split 2;
#X obj 196 480 list split 1;
#X obj 354 407 sel lt gt eq ne gte lte;
#X msg 400 196 SELECT song_id \, value \, field \, operation FROM spotpypie_querycondition AS QueryCondition WHERE QueryCondition.name = 'BdQuery' \;;
#X obj 286 540 list;
#X obj 171 945 t b;
#X obj 107 863 bng 15 250 50 0 empty empty empty 17 7 0 10 #fcfcfc #000000 #000000;
#X obj 107 904 SQLstatement-send;
#X obj 125 1022 make-list;
#X obj 120 1059 print;
#X obj 107 882 t b b b;
#X obj 125 971 SQLquery \$0-db;
#X text 365 351 Create the statement for slices;
#X msg 258 933 SELECT DISTINCT source.uri FROM spotpypie_slice AS slice JOIN spotpypie_song AS song ON slice.song_id = song.id JOIN spotpypie_source AS source ON song.source_id = source.id \;;
#X obj 845 732 t b;
#X obj 781 650 bng 15 250 50 0 empty empty empty 17 7 0 10 #fcfcfc #000000 #000000;
#X obj 781 691 SQLstatement-send;
#X obj 799 809 make-list;
#X obj 781 669 t b b b;
#X obj 799 758 SQLquery \$0-db;
#X obj 698 305 symbol;
#X obj 697 331 u_symbol2list _;
#X obj 697 355 u_listunique;
#X obj 697 379 u_list2symbol _;
#X obj 996 372 spigot 1;
#X obj 1154 346 spigot 0;
#X msg 1057 341 0;
#X msg 1102 359 1;
#X msg 1202 306 0;
#X msg 1239 339 1;
#X msg 44 517 set;
#X msg 187 630 var_bandwidth < 10000 \, var_centroid > 100000 \, rolloff < 40 \,, f 63;
#X msg 113 669 add2 WHERE slice.song_id = \$1;
#X obj 143 549 t b f;
#X msg 237 598 add2 rolloff < \$1 \, addcomma;
#X obj 163 368 t b a;
#X obj 146 504 f;
#X obj 183 732 list trim;
#X obj 183 708 list prepend add2 AND;
#X msg 1154 370 add2 JOIN spotpypie_\$1 ON slice.id = spotpypie_\$1.id;
#X msg 966 433 set SELECT onset_bt_start \, addcomma \, add2 onset_bt_end FROM spotpypie_slice as slice JOIN spotpypie_\$1 ON slice.id = spotpypie_\$1.id;
#X msg 292 560 set add2 \$1 \, add2 \$2 \, adddollar 1 \, addcomma \, add2 addcomma;
#X obj 695 472 route pc h;
#X obj 696 445 list trim;
#X obj 693 497 u_list2symbol _;
#X text 310 130 1 Query querycondition for bassdrums;
#X text 828 643 query bassdrum start- & endsamples;
#X obj 794 870 print;
#X obj 886 820 list;
#X obj 794 846 list split 3;
#X msg 952 750 SELECT onset_bt_start \, onset_bt_end FROM spotpypie_slice as slice JOIN spotpypie_pc_var_bandwidth ON slice.id = spotpypie_pc_var_bandwidth.id JOIN spotpypie_pc_var_centroid ON slice.id = spotpypie_pc_var_centroid.id JOIN spotpypie_pc_rolloff ON slice.id = spotpypie_pc_rolloff.id WHERE slice.song_id = 1 AND var_bandwidth < 10000 AND var_centroid > 100000 AND rolloff < 40, f 51;
#X connect 0 0 2 0;
#X connect 2 0 7 0;
#X connect 3 0 0 0;
#X connect 4 0 0 0;
#X connect 5 0 6 0;
#X connect 6 0 3 0;
#X connect 8 0 13 0;
#X connect 9 0 12 0;
#X connect 10 0 13 0;
#X connect 10 1 28 0;
#X connect 11 0 60 0;
#X connect 11 1 8 0;
#X connect 12 0 10 0;
#X connect 12 1 11 1;
#X connect 12 2 52 0;
#X connect 12 2 53 0;
#X connect 12 2 55 0;
#X connect 13 0 11 0;
#X connect 13 2 11 2;
#X connect 14 0 23 0;
#X connect 15 0 29 0;
#X connect 16 0 15 0;
#X connect 17 0 16 0;
#X connect 18 0 16 0;
#X connect 19 0 16 0;
#X connect 20 0 16 0;
#X connect 21 0 16 0;
#X connect 22 0 16 0;
#X connect 23 0 24 0;
#X connect 23 1 14 0;
#X connect 24 0 25 0;
#X connect 24 1 27 0;
#X connect 25 0 26 0;
#X connect 25 1 45 0;
#X connect 26 0 61 1;
#X connect 26 1 59 0;
#X connect 27 0 17 0;
#X connect 27 1 18 0;
#X connect 27 2 19 0;
#X connect 27 3 20 0;
#X connect 27 4 22 0;
#X connect 27 5 21 0;
#X connect 28 0 13 1;
#X connect 29 0 66 0;
#X connect 30 0 36 0;
#X connect 31 0 35 0;
#X connect 32 0 36 0;
#X connect 32 1 38 0;
#X connect 33 0 34 0;
#X connect 33 1 30 0;
#X connect 35 0 32 0;
#X connect 35 1 33 1;
#X connect 36 0 33 0;
#X connect 36 2 33 2;
#X connect 38 0 36 1;
#X connect 39 0 44 0;
#X connect 40 0 43 0;
#X connect 41 0 44 0;
#X connect 41 1 75 0;
#X connect 42 0 74 0;
#X connect 42 1 39 0;
#X connect 43 0 41 0;
#X connect 43 1 42 1;
#X connect 44 0 42 0;
#X connect 44 2 42 2;
#X connect 45 0 46 0;
#X connect 46 0 47 0;
#X connect 47 0 48 0;
#X connect 47 0 68 0;
#X connect 48 0 50 0;
#X connect 48 0 49 0;
#X connect 49 0 51 0;
#X connect 49 0 54 0;
#X connect 49 0 65 0;
#X connect 50 0 64 0;
#X connect 51 0 49 1;
#X connect 52 0 49 1;
#X connect 53 0 50 1;
#X connect 54 0 50 1;
#X connect 55 0 56 0;
#X connect 56 0 63 0;
#X connect 57 0 75 0;
#X connect 58 0 56 0;
#X connect 58 1 57 0;
#X connect 59 0 56 0;
#X connect 60 0 61 0;
#X connect 60 1 23 0;
#X connect 61 0 58 0;
#X connect 62 0 75 0;
#X connect 63 0 62 0;
#X connect 64 0 75 0;
#X connect 65 0 75 0;
#X connect 66 0 59 0;
#X connect 67 0 69 0;
#X connect 67 1 69 0;
#X connect 68 0 67 0;
#X connect 69 0 15 0;
#X connect 73 0 74 0;
#X connect 74 0 72 0;
#X connect 74 1 73 0;
#X connect 75 0 44 1;
