#N canvas 179 204 450 300 12;
#X obj 41 105 > 0;
#X obj 41 26 notein;
#X obj 41 74 f;
#X obj 41 50 sel \$1;
#X obj 36 179 outlet;
#X obj 213 205 noteout \$2;
#X obj 215 42 t b f;
#X obj 215 66 f \$1;
#X obj 323 92 f 1;
#X obj 328 132 sel 1 0;
#X msg 372 89 0;
#X msg 373 62 1;
#X obj 302 19 inlet;
#X obj 302 43 t b f;
#X obj 263 68 sel 1;
#X obj 129 142 f 0;
#X obj 109 171 change 0;
#X obj 98 113 ofUpdate;
#X connect 0 0 6 0;
#X connect 1 0 3 0;
#X connect 1 1 2 1;
#X connect 2 0 0 0;
#X connect 3 0 2 0;
#X connect 6 0 7 0;
#X connect 6 1 14 0;
#X connect 7 0 5 0;
#X connect 8 0 5 1;
#X connect 8 0 9 0;
#X connect 8 0 15 1;
#X connect 9 0 10 0;
#X connect 9 1 11 0;
#X connect 10 0 8 1;
#X connect 11 0 8 1;
#X connect 12 0 8 1;
#X connect 12 0 13 0;
#X connect 13 0 7 0;
#X connect 13 1 5 1;
#X connect 13 1 9 0;
#X connect 13 1 15 1;
#X connect 14 0 8 0;
#X connect 15 0 16 0;
#X connect 16 0 4 0;
#X connect 17 0 15 0;
