#N canvas 701 190 998 777 12;
#X obj 99 28 inlet;
#X obj 283 63 r \$1-sliceInfo;
#X obj 283 87 unpack f f s;
#X text 387 87 samplestart in loadArray \, SR \, filePath;
#X obj 370 162 samplerate~;
#X obj 323 120 t f b;
#X obj 131 119 unpack f f;
#X obj 198 151 / 44100;
#X obj 98 338 pack f f f;
#X obj 99 486 line~;
#X obj 99 520 tabread4~ \$1-array;
#X obj 99 546 outlet~;
#X msg 98 415 \$1 \, \$2 \$3;
#X obj 488 221 del;
#X obj 198 175 * 1;
#X obj 323 191 / 44100;
#X obj 488 245 outlet;
#X obj 99 52 route stop;
#X obj 323 215 * 1000;
#X obj 198 199 * 1;
#X obj 98 391 spigot 1;
#X text 169 416 foreward;
#X obj 127 364 spigot;
#X msg 130 454 \$2 \, \$1 \$3;
#X obj 99 82 t a a b;
#X obj 309 281 v \$1-backwards;
#X obj 309 305 == 0;
#X obj 216 237 r readSpeed;
#X text 211 456 backward;
#X obj 168 264 * 1;
#X obj 215 267 v \$1-pitch;
#X obj 187 295 * 0.0577623;
#X obj 186 318 exp;
#X obj 55 263 r \$1-length;
#X obj 138 295 * 1;
#X obj 487 196 - 15;
#X obj 247 118 sel 0;
#X connect 0 0 17 0;
#X connect 1 0 2 0;
#X connect 2 1 5 0;
#X connect 2 1 36 0;
#X connect 4 0 15 1;
#X connect 5 0 15 0;
#X connect 5 1 4 0;
#X connect 6 1 7 0;
#X connect 7 0 14 0;
#X connect 8 0 20 0;
#X connect 8 0 22 0;
#X connect 9 0 10 0;
#X connect 10 0 11 0;
#X connect 12 0 9 0;
#X connect 13 0 16 0;
#X connect 14 0 19 0;
#X connect 15 0 18 0;
#X connect 17 1 24 0;
#X connect 18 0 14 1;
#X connect 19 0 29 0;
#X connect 20 0 12 0;
#X connect 22 0 23 0;
#X connect 23 0 9 0;
#X connect 24 0 8 0;
#X connect 24 1 6 0;
#X connect 24 2 25 0;
#X connect 24 2 30 0;
#X connect 25 0 22 1;
#X connect 25 0 26 0;
#X connect 26 0 20 1;
#X connect 27 0 19 1;
#X connect 29 0 34 0;
#X connect 30 0 31 0;
#X connect 31 0 32 0;
#X connect 32 0 29 1;
#X connect 33 0 34 1;
#X connect 34 0 8 2;
#X connect 34 0 35 0;
#X connect 35 0 13 0;
#X connect 36 1 7 1;
