#N canvas 1149 96 629 476 10;
#X obj 302 -27 table lala 65536;
#X obj 210 -27 tabwrite~ lala;
#X obj 210 -115 phasor~;
#X msg 267 -150 0;
#X obj 210 -140 / 65536;
#X obj 210 -49 expr~ tanh($v1);
#X obj 210 -185 samplerate~;
#X floatatom 210 -162 7 0 0 0 - - -;
#X obj 52 -224 bng 15 250 50 0 empty empty empty 17 7 0 10 -4034 -257985
-1;
#X text 72 -224 create the transfer function table by banging;
#X obj 52 -202 t b b;
#X obj 299 -88 / 2;
#X obj 210 -93 *~ 12;
#X obj 210 -71 -~ 6;
#X obj 318 -132 nbx 9 14 0 1000 0 0 empty empty Compression 0 -8 0
10 -4032 -13381 -13381 50 256;
#X obj 260 -110 t b f f;
#X obj 25 105 tabread~ lala;
#X obj 26 62 +~ 1;
#X obj 26 82 *~ 32768;
#X obj 91 -35 nbx 9 14 0 1 0 0 empty empty input_gain 0 -8 0 10 -4032
-13381 -13381 1 256;
#X obj 25 126 hip~ 10;
#X obj 25 9 lop~ 1200;
#X obj 93 -5 nbx 9 14 0 44100 0 0 empty empty lowpass_freq_Hz 0 -8
0 10 -4032 -13381 -13381 9984 256;
#X obj 25 -42 inlet~;
#X obj 26 165 outlet~;
#X text 205 131 found here: https://www.mail-archive.com/pd-list@iem.at/msg38040.html
;
#X obj 57 -107 inlet;
#X msg 57 -85 \$1 30;
#X obj 120 -87 inlet;
#X obj 311 -162 inlet;
#X obj 32 -152 loadbang;
#X msg 32 -130 1;
#X obj 57 -63 line~;
#X obj 25 -21 *~;
#X obj 25 29 lop~ 1200;
#X msg 158 -131 50;
#X connect 2 0 12 0;
#X connect 3 0 2 1;
#X connect 4 0 2 0;
#X connect 5 0 1 0;
#X connect 6 0 7 0;
#X connect 7 0 4 0;
#X connect 8 0 10 0;
#X connect 10 0 3 0;
#X connect 10 0 1 0;
#X connect 10 1 6 0;
#X connect 11 0 13 1;
#X connect 12 0 13 0;
#X connect 13 0 5 0;
#X connect 14 0 15 0;
#X connect 15 0 10 0;
#X connect 15 1 12 1;
#X connect 15 2 11 0;
#X connect 16 0 20 0;
#X connect 17 0 18 0;
#X connect 18 0 16 0;
#X connect 19 0 27 0;
#X connect 20 0 24 0;
#X connect 21 0 34 0;
#X connect 22 0 21 1;
#X connect 23 0 33 0;
#X connect 26 0 27 0;
#X connect 27 0 32 0;
#X connect 28 0 21 1;
#X connect 28 0 34 1;
#X connect 29 0 15 0;
#X connect 30 0 31 0;
#X connect 30 0 35 0;
#X connect 31 0 27 0;
#X connect 32 0 33 1;
#X connect 33 0 21 0;
#X connect 34 0 17 0;
#X connect 35 0 15 0;
